<mxfile host="app.diagrams.net" modified="2024-06-01T15:37:35.480Z" agent="Mozilla/5.0 (Windows NT 10.0; Win64; x64) AppleWebKit/537.36 (KHTML, like Gecko) Chrome/125.0.0.0 Safari/537.36" etag="02PDSWMSISqIwPMSg1ja" version="24.4.13" type="github">
  <diagram name="페이지-1" id="0730mNVhQJwYagWhDFm0">
    <mxGraphModel dx="1290" dy="522" grid="1" gridSize="10" guides="1" tooltips="1" connect="1" arrows="1" fold="1" page="1" pageScale="1" pageWidth="827" pageHeight="1169" math="0" shadow="0">
      <root>
        <mxCell id="0" />
        <mxCell id="1" parent="0" />
        <mxCell id="9gbs9tgWKVbymUqdHYrf-2" value="배달의 민족 시스템" style="swimlane;whiteSpace=wrap;html=1;" vertex="1" parent="1">
          <mxGeometry x="220" y="110" width="380" height="630" as="geometry" />
        </mxCell>
        <mxCell id="9gbs9tgWKVbymUqdHYrf-3" value="소비자" style="shape=umlActor;verticalLabelPosition=bottom;verticalAlign=top;html=1;outlineConnect=0;" vertex="1" parent="1">
          <mxGeometry x="70" y="130" width="30" height="60" as="geometry" />
        </mxCell>
        <mxCell id="9gbs9tgWKVbymUqdHYrf-4" value="Actor" style="shape=umlActor;verticalLabelPosition=bottom;verticalAlign=top;html=1;outlineConnect=0;" vertex="1" parent="1">
          <mxGeometry x="70" y="620" width="30" height="60" as="geometry" />
        </mxCell>
        <mxCell id="9gbs9tgWKVbymUqdHYrf-5" value="Actor" style="shape=umlActor;verticalLabelPosition=bottom;verticalAlign=top;html=1;outlineConnect=0;" vertex="1" parent="1">
          <mxGeometry x="70" y="500" width="30" height="60" as="geometry" />
        </mxCell>
        <mxCell id="9gbs9tgWKVbymUqdHYrf-6" value="배달원&lt;div&gt;(배달 대행업체)&lt;/div&gt;" style="shape=umlActor;verticalLabelPosition=bottom;verticalAlign=top;html=1;outlineConnect=0;" vertex="1" parent="1">
          <mxGeometry x="70" y="380" width="30" height="60" as="geometry" />
        </mxCell>
        <mxCell id="9gbs9tgWKVbymUqdHYrf-7" value="음식점" style="shape=umlActor;verticalLabelPosition=bottom;verticalAlign=top;html=1;outlineConnect=0;" vertex="1" parent="1">
          <mxGeometry x="70" y="260" width="30" height="60" as="geometry" />
        </mxCell>
      </root>
    </mxGraphModel>
  </diagram>
</mxfile>
